<svg width="97.000000" height="58.000000" viewBox="0 0 97 58" fill="none" xmlns="http://www.w3.org/2000/svg" xmlns:xlink="http://www.w3.org/1999/xlink">
	<desc>
			Created with Pixso.
	</desc>
	<defs/>
	<path id="Vector" d="M12.55 0L12.55 3.81C11.5 3.81 10.67 3.96 10.08 4.26C9.49 4.55 9.24 5.13 9.32 6.01L9.86 11.13C10 12.42 9.85 13.47 9.42 14.26C9 15.06 8.36 15.67 7.49 16.1C6.63 16.52 5.62 16.81 4.45 16.99C5.69 17.17 6.74 17.47 7.6 17.89C8.45 18.3 9.08 18.9 9.47 19.69C9.87 20.48 10 21.53 9.86 22.85L9.32 27.96C9.24 28.84 9.49 29.42 10.08 29.71C10.67 30.01 11.5 30.16 12.55 30.16L12.55 33.98C9.35 33.98 7.1 33.49 5.8 32.52C4.52 31.56 4 29.91 4.24 27.58L4.76 22.62C4.85 21.74 4.7 21.05 4.31 20.56C3.93 20.06 3.36 19.71 2.6 19.52C1.85 19.31 0.98 19.2 0 19.2L0 14.77C0.97 14.77 1.83 14.67 2.59 14.47C3.34 14.26 3.91 13.91 4.31 13.41C4.7 12.92 4.85 12.23 4.76 11.35L4.24 6.43C3.98 4.05 4.51 2.38 5.8 1.43C7.1 0.47 9.35 0 12.55 0Z" fill="#42446E" fill-opacity="1.000000" fill-rule="nonzero"/>
	<path id="Vector" d="M27.63 4.49C30.5 4.49 32.67 5.59 34.13 7.81C35.61 10.02 36.34 13.1 36.34 17.05C36.34 21.02 35.61 24.12 34.13 26.36C32.67 28.6 30.5 29.71 27.63 29.71C24.73 29.71 22.55 28.6 21.09 26.36C19.64 24.12 18.91 21.02 18.91 17.05C18.91 13.1 19.64 10.02 21.09 7.81C22.55 5.59 24.73 4.49 27.63 4.49ZM27.63 8.46C26.4 8.46 25.5 9.11 24.93 10.43C24.36 11.74 24.08 13.95 24.08 17.05C24.08 18.07 24.1 18.98 24.13 19.78C24.17 20.56 24.22 21.26 24.29 21.87L30.17 9.62C29.89 9.18 29.54 8.88 29.12 8.72C28.72 8.54 28.22 8.46 27.63 8.46ZM31.14 17.05C31.14 15.73 31.11 14.6 31.05 13.69L25.51 25.12C25.76 25.36 26.06 25.53 26.41 25.62C26.77 25.71 27.18 25.76 27.63 25.76C28.45 25.76 29.12 25.48 29.63 24.93C30.15 24.37 30.53 23.46 30.78 22.19C31.02 20.9 31.14 19.19 31.14 17.05Z" fill="#42446E" fill-opacity="1.000000" fill-rule="nonzero"/>
	<path id="Vector" d="M48.5 4.49C51.37 4.49 53.54 5.59 55 7.81C56.47 10.02 57.21 13.1 57.21 17.05C57.21 21.02 56.47 24.12 55 26.36C53.54 28.6 51.37 29.71 48.5 29.71C45.6 29.71 43.42 28.6 41.96 26.36C40.51 24.12 39.78 21.02 39.78 17.05C39.78 13.1 40.51 10.02 41.96 7.81C43.42 5.59 45.6 4.49 48.5 4.49ZM48.5 8.46C47.27 8.46 46.37 9.11 45.8 10.43C45.23 11.74 44.95 13.95 44.95 17.05C44.95 18.07 44.96 18.98 45 19.78C45.03 20.56 45.09 21.26 45.16 21.87L51.03 9.62C50.76 9.18 50.41 8.88 49.99 8.72C49.58 8.54 49.09 8.46 48.5 8.46ZM52.01 17.05C52.01 15.73 51.98 14.6 51.92 13.69L46.37 25.12C46.63 25.36 46.93 25.53 47.28 25.62C47.64 25.71 48.04 25.76 48.5 25.76C49.32 25.76 49.99 25.48 50.5 24.93C51.02 24.37 51.4 23.46 51.64 22.19C51.89 20.9 52.01 19.19 52.01 17.05Z" fill="#42446E" fill-opacity="1.000000" fill-rule="nonzero"/>
	<path id="Vector" d="M68.11 29.68L62.89 28.06L71.88 9.22L61.29 9.22L61.29 5.09L77.45 5.09L77.45 8.8L68.11 29.68Z" fill="#42446E" fill-opacity="1.000000" fill-rule="nonzero"/>
	<path id="Vector" d="M84.44 0C87.64 0 89.88 0.47 91.17 1.43C92.47 2.39 92.99 4.05 92.75 6.39L92.23 11.35C92.14 12.23 92.29 12.92 92.68 13.41C93.08 13.91 93.64 14.26 94.39 14.47C95.14 14.67 96.01 14.77 97 14.77L97 19.2C96.02 19.2 95.16 19.31 94.4 19.52C93.65 19.71 93.08 20.06 92.68 20.56C92.29 21.05 92.14 21.74 92.23 22.62L92.75 27.54C93.02 29.91 92.5 31.58 91.19 32.54C89.89 33.5 87.64 33.98 84.44 33.98L84.44 30.16C85.5 30.16 86.33 30.01 86.92 29.71C87.52 29.42 87.76 28.84 87.67 27.96L87.13 22.85C86.99 21.54 87.13 20.49 87.55 19.71C87.98 18.91 88.63 18.3 89.5 17.89C90.37 17.46 91.39 17.16 92.56 16.99C91.32 16.8 90.26 16.5 89.39 16.08C88.54 15.67 87.91 15.07 87.52 14.28C87.12 13.48 86.99 12.43 87.13 11.13L87.67 6.01C87.76 5.13 87.51 4.55 86.91 4.26C86.32 3.96 85.49 3.81 84.44 3.81L84.44 0Z" fill="#42446E" fill-opacity="1.000000" fill-rule="nonzero"/>
	<path id="Vector" d="M12.27 41.98C13.24 41.98 14.02 42.21 14.61 42.69C15.2 43.17 15.63 43.85 15.9 44.72C16.18 45.6 16.32 46.63 16.32 47.83C16.32 48.97 16.15 49.99 15.82 50.88C15.48 51.77 15 52.47 14.37 52.98C13.73 53.49 12.97 53.74 12.06 53.74C10.98 53.74 10.11 53.36 9.43 52.59L9.43 57.65L6.13 58L6.13 42.34L9.06 42.34L9.2 43.58C9.65 43 10.15 42.59 10.68 42.35C11.22 42.1 11.75 41.98 12.27 41.98ZM11.25 44.4C10.86 44.4 10.53 44.51 10.23 44.74C9.94 44.97 9.67 45.28 9.43 45.68L9.43 50.34C9.66 50.68 9.9 50.93 10.15 51.09C10.41 51.25 10.71 51.33 11.06 51.33C11.64 51.33 12.1 51.06 12.43 50.54C12.75 50 12.92 49.11 12.92 47.87C12.92 46.96 12.85 46.25 12.72 45.75C12.59 45.25 12.39 44.89 12.14 44.7C11.89 44.5 11.59 44.4 11.25 44.4Z" fill="#42446E" fill-opacity="1.000000" fill-rule="nonzero"/>
	<path id="Vector" d="M27.98 50.2C27.98 50.62 28.04 50.92 28.15 51.11C28.27 51.3 28.46 51.44 28.71 51.54L28.04 53.7C27.38 53.64 26.83 53.49 26.38 53.27C25.93 53.04 25.58 52.7 25.32 52.24C24.9 52.75 24.35 53.13 23.69 53.38C23.03 53.62 22.36 53.74 21.67 53.74C20.53 53.74 19.62 53.42 18.93 52.77C18.26 52.12 17.92 51.29 17.92 50.27C17.92 49.07 18.39 48.14 19.33 47.49C20.28 46.84 21.61 46.51 23.32 46.51L24.81 46.51L24.81 46.09C24.81 44.96 24.08 44.4 22.62 44.4C22.26 44.4 21.81 44.45 21.25 44.56C20.7 44.65 20.14 44.79 19.58 44.98L18.82 42.8C19.54 42.53 20.28 42.32 21.05 42.18C21.83 42.04 22.53 41.98 23.14 41.98C24.79 41.98 26.01 42.31 26.79 42.98C27.59 43.65 27.98 44.61 27.98 45.88L27.98 50.2ZM22.81 51.39C23.16 51.39 23.53 51.29 23.92 51.08C24.31 50.86 24.61 50.56 24.81 50.17L24.81 48.38L24 48.38C23.08 48.38 22.4 48.53 21.97 48.81C21.54 49.09 21.32 49.5 21.32 50.04C21.32 50.46 21.45 50.79 21.71 51.04C21.98 51.27 22.34 51.39 22.81 51.39Z" fill="#42446E" fill-opacity="1.000000" fill-rule="nonzero"/>
	<path id="Vector" d="M41.63 42.34L37.94 53.39L34.05 53.39L30.32 42.34L33.88 42.34L36.04 50.87L38.29 42.34L41.63 42.34Z" fill="#42446E" fill-opacity="1.000000" fill-rule="nonzero"/>
	<path id="Vector" d="M53.02 50.2C53.02 50.62 53.08 50.92 53.19 51.11C53.31 51.3 53.5 51.44 53.75 51.54L53.08 53.7C52.42 53.64 51.87 53.49 51.42 53.27C50.97 53.04 50.62 52.7 50.36 52.24C49.94 52.75 49.4 53.13 48.73 53.38C48.07 53.62 47.4 53.74 46.71 53.74C45.57 53.74 44.66 53.42 43.98 52.77C43.3 52.12 42.96 51.29 42.96 50.27C42.96 49.07 43.43 48.14 44.37 47.49C45.32 46.84 46.65 46.51 48.36 46.51L49.85 46.51L49.85 46.09C49.85 44.96 49.12 44.4 47.66 44.4C47.3 44.4 46.85 44.45 46.29 44.56C45.74 44.65 45.18 44.79 44.62 44.98L43.86 42.8C44.58 42.53 45.32 42.32 46.09 42.18C46.87 42.04 47.57 41.98 48.18 41.98C49.83 41.98 51.05 42.31 51.83 42.98C52.63 43.65 53.02 44.61 53.02 45.88L53.02 50.2ZM47.85 51.39C48.2 51.39 48.57 51.29 48.96 51.08C49.35 50.86 49.65 50.56 49.85 50.17L49.85 48.38L49.04 48.38C48.12 48.38 47.44 48.53 47.01 48.81C46.58 49.09 46.37 49.5 46.37 50.04C46.37 50.46 46.49 50.79 46.75 51.04C47.02 51.27 47.38 51.39 47.85 51.39Z" fill="#42446E" fill-opacity="1.000000" fill-rule="nonzero"/>
	<path id="Vector" d="M56.21 53.39L56.21 42.34L59.09 42.34L59.32 43.62C59.82 43.06 60.34 42.65 60.89 42.38C61.44 42.11 62.06 41.98 62.77 41.98C63.71 41.98 64.46 42.26 65 42.84C65.54 43.41 65.81 44.23 65.81 45.27L65.81 53.39L62.52 53.39L62.52 46.22C62.52 45.54 62.44 45.07 62.29 44.8C62.14 44.53 61.86 44.4 61.45 44.4C61.1 44.4 60.77 44.51 60.45 44.73C60.14 44.95 59.82 45.26 59.51 45.66L59.51 53.39L56.21 53.39Z" fill="#42446E" fill-opacity="1.000000" fill-rule="nonzero"/>
	<path id="Vector" d="M76.93 41.98C77.71 41.98 78.29 42.23 78.67 42.75C79.05 43.25 79.24 44.07 79.24 45.21L79.24 53.39L76.41 53.39L76.41 45.59C76.41 45.2 76.38 44.92 76.3 44.76C76.23 44.6 76.08 44.52 75.86 44.52C75.69 44.52 75.51 44.58 75.32 44.68C75.14 44.78 74.94 44.96 74.71 45.24L74.71 53.39L72.4 53.39L72.4 45.59C72.4 45.2 72.36 44.92 72.28 44.76C72.21 44.6 72.07 44.52 71.84 44.52C71.67 44.52 71.49 44.58 71.3 44.68C71.12 44.78 70.92 44.96 70.7 45.24L70.7 53.39L67.83 53.39L67.83 42.34L70.25 42.34L70.47 43.41C70.81 42.94 71.17 42.58 71.52 42.34C71.88 42.1 72.3 41.98 72.78 41.98C73.2 41.98 73.56 42.08 73.85 42.3C74.15 42.51 74.36 42.84 74.48 43.29C74.82 42.9 75.19 42.58 75.59 42.34C75.99 42.1 76.44 41.98 76.93 41.98Z" fill="#42446E" fill-opacity="1.000000" fill-rule="nonzero"/>
	<path id="Vector" d="M91.1 40.57L91.87 42.98C91.48 43.14 91.02 43.25 90.5 43.32C89.98 43.39 89.37 43.42 88.67 43.42C89.37 43.72 89.9 44.09 90.26 44.53C90.63 44.97 90.81 45.55 90.81 46.26C90.81 46.98 90.62 47.61 90.24 48.18C89.86 48.73 89.31 49.17 88.61 49.49C87.91 49.8 87.08 49.96 86.12 49.96C85.66 49.96 85.23 49.92 84.83 49.84C84.72 49.9 84.63 49.99 84.56 50.11C84.5 50.23 84.47 50.35 84.47 50.47C84.47 50.65 84.54 50.8 84.68 50.94C84.82 51.08 85.16 51.15 85.69 51.15L87.51 51.15C88.37 51.15 89.11 51.29 89.74 51.57C90.37 51.84 90.86 52.22 91.21 52.7C91.56 53.18 91.73 53.73 91.73 54.34C91.73 55.47 91.23 56.37 90.24 57.02C89.24 57.67 87.77 58 85.8 58C84.39 58 83.29 57.85 82.51 57.56C81.73 57.27 81.2 56.86 80.89 56.33C80.59 55.8 80.44 55.18 80.44 54.45L83.36 54.45C83.36 54.77 83.42 55.03 83.55 55.23C83.68 55.44 83.93 55.59 84.29 55.69C84.66 55.78 85.19 55.83 85.89 55.83C86.59 55.83 87.13 55.78 87.5 55.66C87.86 55.55 88.11 55.4 88.25 55.21C88.39 55.02 88.46 54.81 88.46 54.57C88.46 54.25 88.33 53.98 88.07 53.78C87.81 53.58 87.4 53.48 86.85 53.48L85.08 53.48C83.89 53.48 83.02 53.26 82.48 52.82C81.93 52.38 81.66 51.86 81.66 51.28C81.66 50.87 81.77 50.48 81.98 50.11C82.21 49.74 82.52 49.43 82.91 49.18C82.2 48.81 81.7 48.37 81.39 47.86C81.08 47.35 80.93 46.74 80.93 46.02C80.93 45.19 81.14 44.48 81.57 43.88C81.99 43.28 82.58 42.81 83.32 42.49C84.07 42.16 84.93 42 85.89 42C86.72 42.01 87.44 41.95 88.05 41.83C88.66 41.7 89.21 41.52 89.7 41.3C90.18 41.07 90.65 40.83 91.1 40.57ZM85.97 44.13C85.45 44.13 85.04 44.3 84.73 44.63C84.42 44.95 84.27 45.4 84.27 45.98C84.27 46.59 84.43 47.06 84.74 47.38C85.05 47.71 85.46 47.87 85.97 47.87C87.1 47.87 87.66 47.23 87.66 45.94C87.66 44.73 87.1 44.13 85.97 44.13Z" fill="#42446E" fill-opacity="1.000000" fill-rule="nonzero"/>
</svg>
