<svg width="20.000000" height="20.000000" viewBox="0 0 20 20" fill="none" xmlns="http://www.w3.org/2000/svg" xmlns:xlink="http://www.w3.org/1999/xlink">
	<desc>
			Created with Pixso.
	</desc>
	<defs>
		<clipPath id="clip4537_874">
			<rect id="akar-icons:github-fill" width="20.000000" height="20.000000" fill="white" fill-opacity="0"/>
		</clipPath>
	</defs>
	<rect id="akar-icons:github-fill" width="20.000000" height="20.000000" fill="#FFFFFF" fill-opacity="0"/>
	<g clip-path="url(#clip4537_874)">
		<path id="Vector" d="M10 0C4.47 0 0 4.47 0 10C0 14.42 2.86 18.16 6.83 19.48C7.33 19.57 7.52 19.27 7.52 19.01C7.52 18.77 7.51 17.98 7.51 17.15C5 17.61 4.35 16.53 4.14 15.97C4.03 15.68 3.55 14.8 3.12 14.56C2.77 14.37 2.27 13.91 3.11 13.9C3.89 13.88 4.46 14.62 4.64 14.92C5.55 16.43 6.98 16.01 7.56 15.75C7.64 15.1 7.91 14.66 8.19 14.41C5.97 14.16 3.64 13.3 3.64 9.47C3.64 8.38 4.03 7.48 4.67 6.78C4.57 6.53 4.22 5.51 4.77 4.13C4.77 4.13 5.61 3.87 7.52 5.16C8.32 4.93 9.17 4.82 10.02 4.82C10.87 4.82 11.72 4.93 12.52 5.16C14.43 3.86 15.27 4.13 15.27 4.13C15.82 5.51 15.47 6.53 15.37 6.78C16.01 7.48 16.39 8.37 16.39 9.47C16.39 13.31 14.06 14.16 11.83 14.41C12.2 14.72 12.51 15.32 12.51 16.26C12.51 17.6 12.5 18.67 12.5 19.01C12.5 19.27 12.68 19.58 13.18 19.48C15.17 18.81 16.89 17.54 18.11 15.83C19.34 14.13 19.99 12.09 20 10C20 4.47 15.52 0 10 0Z" fill="#000000" fill-opacity="1.000000" fill-rule="evenodd"/>
	</g>
</svg>
