<svg width="20.000000" height="20.000000" viewBox="0 0 20 20" fill="none" xmlns="http://www.w3.org/2000/svg" xmlns:xlink="http://www.w3.org/1999/xlink">
	<desc>
			Created with Pixso.
	</desc>
	<defs>
		<clipPath id="clip4537_850">
			<rect id="akar-icons:link-chain" width="20.000000" height="20.000000" fill="white" fill-opacity="0"/>
		</clipPath>
	</defs>
	<rect id="akar-icons:link-chain" width="20.000000" height="20.000000" fill="#FFFFFF" fill-opacity="0"/>
	<g clip-path="url(#clip4537_850)">
		<path id="Vector" d="M11.28 8.71C10.6 8.03 9.67 7.64 8.71 7.64C7.74 7.64 6.82 8.03 6.14 8.71L3.56 11.28C2.88 11.96 2.5 12.89 2.5 13.86C2.5 14.82 2.88 15.75 3.56 16.43C4.24 17.11 5.17 17.5 6.13 17.5C7.1 17.5 8.03 17.11 8.71 16.43L10 15.14" stroke="#000000" stroke-opacity="1.000000" stroke-width="1.666667" stroke-linejoin="round" stroke-linecap="round"/>
		<path id="Vector" d="M8.71 11.28C9.39 11.96 10.32 12.35 11.28 12.35C12.25 12.35 13.17 11.96 13.85 11.28L16.43 8.71C17.11 8.03 17.5 7.1 17.5 6.13C17.5 5.17 17.11 4.24 16.43 3.56C15.75 2.88 14.82 2.49 13.86 2.49C12.89 2.49 11.96 2.88 11.28 3.56L10 4.85" stroke="#000000" stroke-opacity="1.000000" stroke-width="1.666667" stroke-linejoin="round" stroke-linecap="round"/>
	</g>
</svg>
