<svg width="16.000000" height="12.000000" viewBox="0 0 16 12" fill="none" xmlns="http://www.w3.org/2000/svg" xmlns:xlink="http://www.w3.org/1999/xlink">
	<desc>
			Created with Pixso.
	</desc>
	<defs>
		<clipPath id="clip14_2889">
			<rect width="16.000000" height="12.000000" fill="white" fill-opacity="0"/>
		</clipPath>
	</defs>
	<rect width="16.000000" height="12.000000" fill="#FFFFFF" fill-opacity="0"/>
	<g clip-path="url(#clip14_2889)">
		<path d="M8 6.75C7.5 6.75 7.02 6.64 6.61 6.43C6.19 6.22 5.87 5.93 5.69 5.59C5.5 5.24 5.45 4.87 5.54 4.5C5.64 4.14 5.88 3.81 6.23 3.54C6.58 3.28 7.02 3.1 7.51 3.03C7.99 2.96 8.5 3 8.95 3.14C9.41 3.28 9.8 3.52 10.07 3.83C10.35 4.14 10.5 4.5 10.5 4.87C10.49 5.37 10.23 5.84 9.76 6.2C9.29 6.55 8.66 6.74 8 6.75ZM8 3.75C7.7 3.75 7.41 3.81 7.16 3.93C6.91 4.06 6.72 4.23 6.61 4.44C6.5 4.65 6.47 4.87 6.52 5.09C6.58 5.31 6.72 5.51 6.93 5.67C7.14 5.82 7.41 5.93 7.7 5.97C7.99 6.02 8.3 5.99 8.57 5.91C8.84 5.82 9.08 5.68 9.24 5.5C9.41 5.31 9.5 5.09 9.5 4.87C9.49 4.57 9.34 4.29 9.06 4.07C8.77 3.86 8.39 3.75 8 3.75Z" fill="#A7A7A7" fill-opacity="1.000000" fill-rule="nonzero"/>
		<path d="M8 11.25L3.78 7.51C3.72 7.46 3.66 7.4 3.6 7.34C2.88 6.63 2.49 5.76 2.5 4.87C2.5 3.78 3.07 2.73 4.11 1.95C5.14 1.18 6.54 0.75 8 0.75C9.45 0.75 10.85 1.18 11.88 1.95C12.92 2.73 13.5 3.78 13.5 4.87C13.5 5.76 13.11 6.63 12.39 7.34L12.39 7.34C12.39 7.34 12.24 7.49 12.21 7.51L8 11.25ZM4.4 6.89C4.4 6.89 4.52 7.01 4.54 7.03L8 10.09L11.45 7.03C11.47 7.01 11.59 6.89 11.59 6.89C12.18 6.31 12.5 5.6 12.5 4.87C12.5 3.97 12.02 3.12 11.18 2.48C10.33 1.85 9.19 1.5 8 1.5C6.8 1.5 5.66 1.85 4.81 2.48C3.97 3.12 3.5 3.97 3.5 4.87C3.49 5.6 3.81 6.31 4.4 6.89L4.4 6.89Z" fill="#A7A7A7" fill-opacity="1.000000" fill-rule="nonzero"/>
	</g>
</svg>
