<svg width="28.800049" height="28.800049" viewBox="0 0 28.8 28.8" fill="none" xmlns="http://www.w3.org/2000/svg" xmlns:xlink="http://www.w3.org/1999/xlink">
	<desc>
			Created with Pixso.
	</desc>
	<defs/>
	<path id="Vector" d="M14.39 0C6.44 0 0 6.44 0 14.4C0 22.35 6.44 28.8 14.39 28.8C22.35 28.8 28.8 22.35 28.8 14.4C28.8 6.44 22.35 0 14.39 0ZM10.87 20.36L7.95 20.36L7.95 10.98L10.87 10.98L10.87 20.36ZM9.39 9.83C8.47 9.83 7.88 9.18 7.88 8.37C7.88 7.54 8.49 6.91 9.43 6.91C10.37 6.91 10.95 7.54 10.97 8.37C10.97 9.18 10.37 9.83 9.39 9.83ZM21.52 20.36L18.6 20.36L18.6 15.16C18.6 13.95 18.18 13.13 17.13 13.13C16.32 13.13 15.84 13.69 15.63 14.22C15.55 14.41 15.53 14.68 15.53 14.95L15.53 20.36L12.62 20.36L12.62 13.97C12.62 12.8 12.58 11.82 12.54 10.98L15.07 10.98L15.21 12.28L15.27 12.28C15.65 11.67 16.59 10.77 18.16 10.77C20.08 10.77 21.52 12.05 21.52 14.81L21.52 20.36Z" fill="#42446E" fill-opacity="1.000000" fill-rule="nonzero"/>
</svg>
