<svg width="30.000000" height="30.000000" viewBox="0 0 30 30" fill="none" xmlns="http://www.w3.org/2000/svg" xmlns:xlink="http://www.w3.org/1999/xlink">
	<desc>
			Created with Pixso.
	</desc>
	<defs/>
	<path id="Vector" d="M15 0C6.71 0 0 6.71 0 15C0 23.28 6.71 30 15 30C23.28 30 30 23.28 30 15C30 6.71 23.28 0 15 0ZM22.2 11.3C22.21 11.46 22.21 11.62 22.21 11.78C22.21 16.7 18.47 22.36 11.63 22.36C9.52 22.36 7.57 21.75 5.92 20.69C6.22 20.73 6.51 20.74 6.82 20.74C8.56 20.74 10.16 20.15 11.43 19.15C9.8 19.12 8.43 18.05 7.96 16.58C8.53 16.66 9.05 16.66 9.63 16.51C8.79 16.34 8.04 15.88 7.49 15.22C6.95 14.55 6.66 13.72 6.66 12.86L6.66 12.81C7.15 13.09 7.73 13.26 8.34 13.28C7.83 12.94 7.41 12.48 7.12 11.94C6.83 11.41 6.68 10.8 6.68 10.19C6.68 9.5 6.86 8.86 7.18 8.32C8.12 9.46 9.28 10.41 10.6 11.07C11.92 11.74 13.37 12.13 14.85 12.2C14.33 9.67 16.21 7.63 18.48 7.63C19.56 7.63 20.52 8.08 21.2 8.8C22.04 8.64 22.84 8.33 23.56 7.91C23.28 8.77 22.7 9.49 21.93 9.95C22.68 9.87 23.4 9.66 24.07 9.37C23.56 10.12 22.93 10.78 22.2 11.3Z" fill="#42446E" fill-opacity="1.000000" fill-rule="nonzero"/>
</svg>
