<svg width="112.990723" height="100.896667" viewBox="0 0 112.991 100.897" fill="none" xmlns="http://www.w3.org/2000/svg" xmlns:xlink="http://www.w3.org/1999/xlink">
	<desc>
			Created with Pixso.
	</desc>
	<defs/>
	<path id="Vector" d="M92.9 32.7C91.69 32.28 90.48 31.9 89.26 31.55C89.46 30.71 89.65 29.87 89.82 29.06C92.57 15.64 90.77 4.84 84.63 1.28C78.73 -2.13 69.09 1.42 59.36 9.93C58.4 10.77 57.46 11.63 56.54 12.52C55.93 11.93 55.31 11.35 54.67 10.78C44.47 1.69 34.24 -2.14 28.1 1.43C22.21 4.85 20.47 15.01 22.94 27.72C23.19 28.98 23.47 30.23 23.78 31.48C22.33 31.89 20.93 32.33 19.6 32.8C7.63 36.98 0 43.54 0 50.35C0 57.38 8.2 64.42 20.66 68.7C21.67 69.04 22.69 69.36 23.71 69.66C23.38 71 23.08 72.35 22.82 73.71C20.46 86.2 22.31 96.12 28.18 99.52C34.25 103.03 44.43 99.42 54.34 90.72C55.14 90.01 55.93 89.29 56.7 88.54C57.69 89.5 58.71 90.43 59.75 91.34C69.36 99.63 78.84 102.98 84.71 99.57C90.77 96.05 92.74 85.39 90.18 72.43C89.98 71.41 89.75 70.4 89.5 69.4C90.22 69.19 90.92 68.97 91.6 68.74C104.56 64.43 112.99 57.47 112.99 50.35C112.99 43.52 105.1 36.91 92.9 32.7ZM90.09 64.14C89.47 64.35 88.83 64.55 88.19 64.74C86.76 60.19 84.83 55.36 82.47 50.37C84.72 45.5 86.58 40.73 87.97 36.22C89.12 36.55 90.24 36.9 91.33 37.28C101.78 40.89 108.16 46.23 108.16 50.35C108.16 54.73 101.27 60.42 90.09 64.14ZM85.45 73.37C86.58 79.1 86.74 84.29 85.99 88.34C85.32 91.98 83.96 94.41 82.29 95.38C78.73 97.45 71.11 94.76 62.9 87.67C61.93 86.83 60.98 85.96 60.06 85.07C63.24 81.57 66.43 77.51 69.53 73C74.99 72.51 80.15 71.71 84.83 70.63C85.06 71.54 85.26 72.45 85.45 73.37ZM38.52 95.02C35.04 96.25 32.27 96.29 30.59 95.32C27.03 93.26 25.55 85.29 27.57 74.61C27.81 73.35 28.08 72.09 28.39 70.85C33.02 71.87 38.14 72.61 43.62 73.06C46.74 77.47 50.02 81.53 53.32 85.08C52.62 85.77 51.9 86.43 51.16 87.07C46.78 90.92 42.39 93.65 38.52 95.02ZM22.22 64.12C16.71 62.23 12.16 59.77 9.04 57.09C6.24 54.68 4.82 52.29 4.82 50.35C4.82 46.22 10.96 40.95 21.19 37.37C22.43 36.94 23.73 36.53 25.08 36.14C26.49 40.76 28.34 45.59 30.58 50.47C28.32 55.42 26.43 60.32 25.01 64.99C24.07 64.72 23.14 64.43 22.22 64.12ZM27.68 26.79C25.56 15.9 26.97 7.68 30.52 5.62C34.3 3.42 42.66 6.56 51.47 14.41C52.04 14.92 52.61 15.44 53.16 15.98C49.88 19.52 46.63 23.54 43.54 27.93C38.22 28.43 33.13 29.22 28.46 30.28C28.17 29.13 27.91 27.96 27.68 26.79L27.68 26.79ZM76.42 38.87C75.32 36.95 74.17 35.06 72.98 33.2C76.59 33.65 80.04 34.26 83.29 35C82.31 38.14 81.1 41.41 79.67 44.77C78.63 42.78 77.54 40.81 76.42 38.87ZM56.54 19.44C58.77 21.86 61 24.56 63.19 27.5C58.74 27.28 54.29 27.28 49.84 27.49C52.03 24.59 54.28 21.89 56.54 19.44ZM36.54 38.9C35.43 40.83 34.37 42.79 33.35 44.77C31.95 41.42 30.74 38.13 29.76 34.95C32.99 34.23 36.42 33.64 40.01 33.19C38.81 35.07 37.65 36.97 36.54 38.9L36.54 38.9ZM40.11 67.85C36.41 67.44 32.92 66.88 29.69 66.17C30.69 62.94 31.92 59.58 33.36 56.16C34.38 58.14 35.45 60.1 36.56 62.03C37.71 64.01 38.89 65.96 40.11 67.85ZM56.68 81.6C54.39 79.12 52.11 76.38 49.88 73.43C52.04 73.52 54.25 73.56 56.49 73.56C58.79 73.56 61.07 73.51 63.31 73.41C61.11 76.41 58.89 79.15 56.68 81.6ZM79.72 55.99C81.23 59.44 82.5 62.78 83.51 65.96C80.23 66.71 76.7 67.32 72.97 67.76C74.16 65.86 75.32 63.94 76.44 61.99C77.58 60.02 78.67 58.01 79.72 55.99ZM72.26 59.57C70.55 62.56 68.74 65.49 66.84 68.35C63.39 68.6 59.94 68.72 56.49 68.72C52.97 68.72 49.55 68.61 46.26 68.39C44.31 65.53 42.47 62.6 40.74 59.6L40.74 59.6C39.02 56.62 37.41 53.57 35.92 50.46C37.4 47.36 39.01 44.31 40.72 41.32L40.72 41.32C42.44 38.34 44.27 35.42 46.2 32.57C49.56 32.31 53.01 32.18 56.49 32.18L56.49 32.18C59.99 32.18 63.44 32.31 66.8 32.57C68.71 35.41 70.53 38.32 72.24 41.3C73.96 44.28 75.59 47.31 77.11 50.39C75.6 53.51 73.98 56.57 72.26 59.57ZM82.22 5.48C86 7.67 87.47 16.5 85.09 28.08C84.94 28.82 84.77 29.57 84.59 30.33C79.9 29.25 74.81 28.44 69.48 27.94C66.37 23.5 63.16 19.47 59.93 15.97C60.77 15.16 61.64 14.36 62.53 13.58C70.87 6.3 78.66 3.42 82.22 5.48ZM56.49 40.22C62.06 40.22 66.58 44.76 66.58 50.35C66.58 55.94 62.06 60.47 56.49 60.47C50.92 60.47 46.4 55.94 46.4 50.35C46.4 44.76 50.92 40.22 56.49 40.22Z" fill="#00D8FF" fill-opacity="1.000000" fill-rule="nonzero"/>
</svg>
