<svg width="41.790695" height="31.187500" viewBox="0 0 41.7907 31.1875" fill="none" xmlns="http://www.w3.org/2000/svg" xmlns:xlink="http://www.w3.org/1999/xlink">
	<desc>
			Created with Pixso.
	</desc>
	<defs/>
	<path id="Vector" d="M9.49 12.43C9.03 12.43 8.58 12.5 8.14 12.57C8.28 12.08 8.43 11.59 8.67 11.15C8.91 10.51 9.28 9.95 9.65 9.39C9.95 8.79 10.5 8.38 10.9 7.86C11.32 7.35 11.89 7.02 12.34 6.6C12.78 6.16 13.36 5.94 13.83 5.63C14.31 5.36 14.73 5.05 15.18 4.91L16.3 4.44L17.29 4.03L16.28 0L15.04 0.29C14.64 0.4 14.15 0.51 13.6 0.65C13.04 0.76 12.44 1.04 11.76 1.3C11.1 1.6 10.34 1.8 9.62 2.27C8.91 2.73 8.08 3.11 7.35 3.71C6.64 4.34 5.79 4.88 5.16 5.68C4.47 6.43 3.8 7.21 3.27 8.1C2.66 8.95 2.24 9.89 1.81 10.81C1.41 11.73 1.09 12.68 0.83 13.59C0.34 15.43 0.12 17.18 0.03 18.67C-0.04 20.17 0 21.41 0.09 22.31C0.12 22.73 0.18 23.15 0.22 23.43L0.27 23.78L0.33 23.77C0.7 25.5 1.55 27.09 2.79 28.36C4.02 29.62 5.59 30.51 7.32 30.93C9.04 31.34 10.84 31.25 12.52 30.68C14.19 30.11 15.67 29.08 16.78 27.7C17.9 26.33 18.6 24.66 18.8 22.9C19.01 21.15 18.72 19.37 17.95 17.77C17.19 16.17 15.99 14.82 14.49 13.88C13 12.93 11.26 12.43 9.49 12.43ZM32.41 12.43C31.95 12.43 31.5 12.5 31.06 12.57C31.2 12.08 31.35 11.59 31.59 11.15C31.82 10.51 32.19 9.95 32.56 9.39C32.87 8.79 33.41 8.38 33.81 7.86C34.23 7.35 34.8 7.02 35.26 6.6C35.7 6.16 36.28 5.94 36.74 5.63C37.23 5.36 37.65 5.05 38.1 4.91L39.22 4.44L40.21 4.03L39.2 0L37.95 0.29C37.56 0.4 37.07 0.51 36.52 0.65C35.95 0.76 35.35 1.04 34.68 1.3C34.02 1.6 33.25 1.8 32.54 2.27C31.82 2.73 31 3.11 30.27 3.72C29.56 4.34 28.71 4.89 28.08 5.68C27.39 6.43 26.71 7.21 26.19 8.1C25.57 8.95 25.16 9.89 24.72 10.81C24.33 11.73 24.01 12.68 23.75 13.59C23.25 15.43 23.03 17.18 22.95 18.67C22.88 20.17 22.92 21.41 23.01 22.31C23.04 22.73 23.1 23.15 23.14 23.43L23.19 23.78L23.24 23.77C23.61 25.5 24.47 27.09 25.7 28.36C26.94 29.62 28.51 30.51 30.23 30.93C31.95 31.34 33.76 31.25 35.43 30.68C37.11 30.11 38.59 29.08 39.7 27.7C40.81 26.33 41.51 24.66 41.72 22.9C41.93 21.15 41.63 19.37 40.87 17.77C40.11 16.17 38.91 14.82 37.41 13.88C35.91 12.93 34.18 12.43 32.41 12.43Z" fill="#7572D5" fill-opacity="1.000000" fill-rule="nonzero"/>
</svg>
