<svg width="9.333496" height="9.000000" viewBox="0 0 9.3335 9" fill="none" xmlns="http://www.w3.org/2000/svg" xmlns:xlink="http://www.w3.org/1999/xlink">
	<desc>
			Created with Pixso.
	</desc>
	<defs/>
	<path id="Vector" d="M0 0L0 9L4 9L4 7.25L5.33 7.25L5.33 9L9.33 9L9.33 0L0 0ZM1.33 1L2.66 1L2.66 2L1.33 2L1.33 1ZM4 1L5.33 1L5.33 2L4 2L4 1ZM6.66 1L8 1L8 2L6.66 2L6.66 1ZM1.33 3L2.66 3L2.66 4L1.33 4L1.33 3ZM4 3L5.33 3L5.33 4L4 4L4 3ZM6.66 3L8 3L8 4L6.66 4L6.66 3ZM1.33 5L2.66 5L2.66 6L1.33 6L1.33 5ZM4 5L5.33 5L5.33 6L4 6L4 5ZM6.66 5L8 5L8 6L6.66 6L6.66 5ZM1.33 7L2.66 7L2.66 8L1.33 8L1.33 7ZM6.66 7L8 7L8 8L6.66 8L6.66 7Z" fill="#A7A7A7" fill-opacity="1.000000" fill-rule="nonzero"/>
</svg>
