<svg width="12.000000" height="9.000000" viewBox="0 0 12 9" fill="none" xmlns="http://www.w3.org/2000/svg" xmlns:xlink="http://www.w3.org/1999/xlink">
	<desc>
			Created with Pixso.
	</desc>
	<defs/>
	<path id="Vector" d="M3.33 5C3.15 5 2.98 4.94 2.86 4.85C2.73 4.75 2.66 4.63 2.66 4.5C2.66 4.36 2.73 4.24 2.86 4.14C2.98 4.05 3.15 4 3.33 4C3.51 4 3.67 4.05 3.8 4.14C3.92 4.24 4 4.36 4 4.5C4 4.63 3.92 4.75 3.8 4.85C3.67 4.94 3.51 5 3.33 5ZM3.33 7C3.15 7 2.98 6.94 2.86 6.85C2.73 6.75 2.66 6.63 2.66 6.5C2.66 6.36 2.73 6.24 2.86 6.14C2.98 6.05 3.15 6 3.33 6C3.51 6 3.67 6.05 3.8 6.14C3.92 6.24 4 6.36 4 6.5C4 6.63 3.92 6.75 3.8 6.85C3.67 6.94 3.51 7 3.33 7ZM5.33 6.5C5.33 6.63 5.4 6.75 5.52 6.85C5.65 6.94 5.82 7 6 7C6.17 7 6.34 6.94 6.47 6.85C6.59 6.75 6.66 6.63 6.66 6.5C6.66 6.36 6.59 6.24 6.47 6.14C6.34 6.05 6.17 6 6 6C5.82 6 5.65 6.05 5.52 6.14C5.4 6.24 5.33 6.36 5.33 6.5ZM8.66 7C8.48 7 8.32 6.94 8.19 6.85C8.07 6.75 8 6.63 8 6.5C8 6.36 8.07 6.24 8.19 6.14C8.32 6.05 8.48 6 8.66 6C8.84 6 9.01 6.05 9.13 6.14C9.26 6.24 9.33 6.36 9.33 6.5C9.33 6.63 9.26 6.75 9.13 6.85C9.01 6.94 8.84 7 8.66 7ZM5.33 4.5C5.33 4.63 5.4 4.75 5.52 4.85C5.65 4.94 5.82 5 6 5C6.17 5 6.34 4.94 6.47 4.85C6.59 4.75 6.66 4.63 6.66 4.5C6.66 4.36 6.59 4.24 6.47 4.14C6.34 4.05 6.17 4 6 4C5.82 4 5.65 4.05 5.52 4.14C5.4 4.24 5.33 4.36 5.33 4.5ZM8.66 5C8.48 5 8.32 4.94 8.19 4.85C8.07 4.75 8 4.63 8 4.5C8 4.36 8.07 4.24 8.19 4.14C8.32 4.05 8.48 4 8.66 4C8.84 4 9.01 4.05 9.13 4.14C9.26 4.24 9.33 4.36 9.33 4.5C9.33 4.63 9.26 4.75 9.13 4.85C9.01 4.94 8.84 5 8.66 5ZM3.33 2C3.15 2 2.98 2.05 2.86 2.14C2.73 2.24 2.66 2.36 2.66 2.5C2.66 2.63 2.73 2.75 2.86 2.85C2.98 2.94 3.15 3 3.33 3L8.66 3C8.84 3 9.01 2.94 9.13 2.85C9.26 2.75 9.33 2.63 9.33 2.5C9.33 2.36 9.26 2.24 9.13 2.14C9.01 2.05 8.84 2 8.66 2L3.33 2Z" fill="#A7A7A7" fill-opacity="1.000000" fill-rule="nonzero"/>
	<path id="Vector" d="M2 0C1.46 0 0.96 0.15 0.58 0.43C0.21 0.72 0 1.1 0 1.5L0 7.5C0 7.89 0.21 8.27 0.58 8.56C0.96 8.84 1.46 9 2 9L10 9C10.53 9 11.03 8.84 11.41 8.56C11.78 8.27 12 7.89 12 7.5L12 1.5C12 1.1 11.78 0.72 11.41 0.43C11.03 0.15 10.53 0 10 0L2 0ZM10 1L2 1C1.82 1 1.65 1.05 1.52 1.14C1.4 1.24 1.33 1.36 1.33 1.5L1.33 7.5C1.33 7.63 1.4 7.75 1.52 7.85C1.65 7.94 1.82 8 2 8L10 8C10.17 8 10.34 7.94 10.47 7.85C10.59 7.75 10.66 7.63 10.66 7.5L10.66 1.5C10.66 1.36 10.59 1.24 10.47 1.14C10.34 1.05 10.17 1 10 1Z" fill="#A7A7A7" fill-opacity="1.000000" fill-rule="evenodd"/>
</svg>
